
<svg xmlns="http://www.w3.org/2000/svg" xmlns:xlink="http://www.w3.org/1999/xlink" preserveAspectRatio="xMidYMid meet" version="1.0" viewBox="0.0 0.0 454.3 454.3" zoomAndPan="magnify" style="fill: rgb(15, 184, 206);" original_string_length="3145" width="95.78125538810077px" height="95.78125538810077px"><g id="__id0_svsywos3zn"><path d="M454.348,227.174c0-60.681-23.63-117.729-66.538-160.637C344.903,23.63,287.855,0,227.174,0S109.445,23.63,66.538,66.538 C23.63,109.445,0,166.494,0,227.174c0,60.68,23.63,117.729,66.538,160.636c42.908,42.908,99.956,66.538,160.637,66.538 c0.002,0-0.001,0,0.001,0c0,0,0.001,0,0.001,0c60.68,0,117.727-23.63,160.634-66.538 C430.718,344.903,454.348,287.854,454.348,227.174z M15.147,234.674h92.905c0.517,30.979,4.227,60.905,10.835,88.309 c-22.759,6.803-44.46,15.796-64.721,26.889C30.867,317.116,16.642,277.485,15.147,234.674z M54.165,104.477 c20.261,11.094,41.962,20.086,64.721,26.889c-6.608,27.404-10.318,57.329-10.835,88.308H15.147 C16.642,176.864,30.867,137.234,54.165,104.477z M439.201,219.674h-92.904c-0.518-30.979-4.228-60.905-10.836-88.309 c22.759-6.803,44.461-15.796,64.721-26.889C423.481,137.233,437.706,176.863,439.201,219.674z M331.295,219.674h-96.621v-72.902 c29.735-0.555,58.728-4.411,86.334-11.41C327.265,161.471,330.785,190.037,331.295,219.674z M234.674,131.768V15.558 c24.116,3.595,46.888,24.467,64.793,59.682c7.003,13.772,12.932,29.112,17.71,45.621 C290.814,127.533,263.11,131.217,234.674,131.768z M219.674,15.558v116.21c-28.435-0.552-56.14-4.236-82.503-10.907 c4.778-16.509,10.707-31.848,17.709-45.621C172.785,40.026,195.558,19.153,219.674,15.558z M219.674,146.772v72.902h-96.621 c0.51-29.637,4.031-58.203,10.286-84.312C160.946,142.361,189.938,146.216,219.674,146.772z M123.054,234.674h96.621v72.903 c-29.736,0.556-58.729,4.411-86.334,11.409C127.084,292.878,123.564,264.311,123.054,234.674z M219.674,322.581v116.21 c-24.116-3.595-46.888-24.467-64.793-59.682c-7.003-13.772-12.931-29.112-17.71-45.621 C163.534,326.817,191.239,323.132,219.674,322.581z M234.674,438.79v-116.21c28.435,0.552,56.14,4.236,82.503,10.907 c-4.778,16.509-10.707,31.848-17.71,45.621C281.563,414.323,258.79,435.196,234.674,438.79z M234.674,307.577v-72.903h96.621 c-0.51,29.637-4.031,58.204-10.287,84.313C293.403,311.988,264.41,308.133,234.674,307.577z M346.297,234.674h92.904 c-1.495,42.811-15.72,82.442-39.018,115.198c-20.261-11.093-41.962-20.086-64.721-26.889 C342.07,295.58,345.78,265.654,346.297,234.674z M390.943,92.421c-18.617,10.009-38.495,18.182-59.319,24.439 c-5.051-17.498-11.343-33.779-18.786-48.418c-10.144-19.95-21.922-35.833-34.81-47.266 C322.992,32.278,362.359,57.743,390.943,92.421z M176.32,21.176c-12.888,11.434-24.667,27.316-34.81,47.267 c-7.443,14.639-13.735,30.919-18.786,48.417c-20.824-6.257-40.702-14.429-59.319-24.438C91.989,57.744,131.356,32.279,176.32,21.176 z M63.405,361.928c18.617-10.009,38.495-18.181,59.319-24.438c5.051,17.498,11.343,33.778,18.786,48.417 c10.143,19.95,21.922,35.832,34.809,47.266C131.356,422.07,91.99,396.605,63.405,361.928z M278.027,433.174 c12.889-11.434,24.668-27.317,34.811-47.266c7.443-14.639,13.735-30.92,18.786-48.417c20.823,6.257,40.702,14.429,59.319,24.438 C362.359,396.606,322.991,422.071,278.027,433.174z" style="fill: inherit;"/></g></svg>