
<svg xmlns="http://www.w3.org/2000/svg" xmlns:xlink="http://www.w3.org/1999/xlink" preserveAspectRatio="xMidYMid meet" version="1.0" viewBox="0.0 0.0 98.0 87.8" zoomAndPan="magnify" style="fill: rgb(0, 0, 0);" original_string_length="1994" width="119.94376862141088px" height="107.73131217995812px"><defs><clipPath id="__id2_shn9mx19be"><path d="M 0 0 L 98 0 L 98 87.828125 L 0 87.828125 Z M 0 0"/></clipPath></defs><g><g clip-path="url(#__id2_shn9mx19be)" id="__id3_shn9mx19be"><path d="M 49 66.230469 C 48.203125 66.230469 47.554688 65.582031 47.554688 64.785156 C 47.554688 63.988281 48.203125 63.339844 49 63.339844 C 49.796875 63.339844 50.445312 63.988281 50.445312 64.785156 C 50.445312 65.582031 49.796875 66.230469 49 66.230469 Z M 49 61.339844 C 47.097656 61.339844 45.554688 62.886719 45.554688 64.785156 C 45.554688 66.6875 47.097656 68.230469 49 68.230469 C 50.902344 68.230469 52.445312 66.6875 52.445312 64.785156 C 52.445312 62.886719 50.902344 61.339844 49 61.339844 Z M 90.738281 71.132812 L 7.261719 71.132812 C 4.359375 71.132812 2 68.609375 2 65.503906 L 2 58.4375 L 96 58.4375 L 96 65.503906 C 96 68.609375 93.640625 71.132812 90.738281 71.132812 Z M 60.667969 85.828125 L 37.332031 85.828125 L 41.652344 73.132812 L 56.347656 73.132812 Z M 7.261719 2.003906 L 90.738281 2.003906 C 93.640625 2.003906 96 4.527344 96 7.632812 L 96 56.4375 L 2 56.4375 L 2 7.632812 C 2 4.527344 4.359375 2.003906 7.261719 2.003906 Z M 90.738281 0.00390625 L 7.261719 0.00390625 C 3.257812 0.00390625 0 3.425781 0 7.632812 L 0 65.503906 C 0 69.710938 3.257812 73.132812 7.261719 73.132812 L 39.539062 73.132812 L 34.988281 86.507812 C 34.886719 86.8125 34.933594 87.148438 35.121094 87.410156 C 35.3125 87.671875 35.613281 87.828125 35.9375 87.828125 L 62.0625 87.828125 C 62.386719 87.828125 62.6875 87.671875 62.878906 87.410156 C 63.066406 87.148438 63.113281 86.8125 63.011719 86.507812 L 58.460938 73.132812 L 90.738281 73.132812 C 94.742188 73.132812 98 69.710938 98 65.503906 L 98 7.632812 C 98 3.425781 94.742188 0.00390625 90.738281 0.00390625" style="fill: rgb(15, 184, 206);"/></g></g></svg>