
<svg xmlns="http://www.w3.org/2000/svg" xmlns:xlink="http://www.w3.org/1999/xlink" preserveAspectRatio="xMidYMid meet" version="1.0" viewBox="598.9 505.1 1254.7 1442.3" zoomAndPan="magnify" style="fill: rgb(0, 0, 0);" original_string_length="6780" width="87.45327964806525px" height="100.4841667350678px"><g id="__id1_shn9mx19be" style="fill: rgb(15, 184, 206);"><path d="M 1739.910156 1947.371094 L 712.585938 1947.371094 C 648.847656 1947.371094 598.882812 1876.691406 598.882812 1786.441406 L 598.882812 793.53125 C 598.882812 703.285156 648.847656 632.609375 712.585938 632.609375 L 837.34375 632.609375 C 848.539062 632.609375 857.652344 641.683594 857.652344 652.917969 C 857.652344 664.15625 848.539062 673.253906 837.34375 673.253906 L 712.585938 673.253906 C 672.988281 673.253906 639.523438 728.328125 639.523438 793.53125 L 639.523438 1786.441406 C 639.523438 1851.648438 672.988281 1906.730469 712.585938 1906.730469 L 1739.910156 1906.730469 C 1779.507812 1906.730469 1812.976562 1851.648438 1812.976562 1786.441406 L 1812.976562 793.53125 C 1812.976562 728.328125 1779.507812 673.253906 1739.910156 673.253906 L 1613.117188 673.253906 C 1601.902344 673.253906 1592.78125 664.15625 1592.78125 652.917969 C 1592.78125 641.683594 1601.902344 632.609375 1613.117188 632.609375 L 1739.910156 632.609375 C 1803.6875 632.609375 1853.621094 703.285156 1853.621094 793.53125 L 1853.621094 1786.441406 C 1853.621094 1876.691406 1803.6875 1947.371094 1739.910156 1947.371094" style="fill: inherit;"/><path d="M 1485.683594 673.246094 L 957.261719 673.246094 C 946.042969 673.246094 936.953125 664.15625 936.953125 652.925781 C 936.953125 641.683594 946.042969 632.605469 957.261719 632.605469 L 1485.683594 632.605469 C 1496.902344 632.605469 1505.992188 641.683594 1505.992188 652.925781 C 1505.992188 664.15625 1496.902344 673.246094 1485.683594 673.246094" style="fill: inherit;"/><path d="M 898.144531 794.445312 C 886.925781 794.445312 877.8125 785.355469 877.8125 774.125 L 877.8125 525.445312 C 877.8125 514.214844 886.925781 505.121094 898.144531 505.121094 C 909.363281 505.121094 918.453125 514.214844 918.453125 525.445312 L 918.453125 774.125 C 918.453125 785.355469 909.363281 794.445312 898.144531 794.445312" style="fill: inherit;"/><path d="M 1554.378906 794.445312 C 1543.160156 794.445312 1534.054688 785.355469 1534.054688 774.125 L 1534.054688 525.445312 C 1534.054688 514.214844 1543.160156 505.121094 1554.378906 505.121094 C 1565.609375 505.121094 1574.6875 514.214844 1574.6875 525.445312 L 1574.6875 774.125 C 1574.6875 785.355469 1565.609375 794.445312 1554.378906 794.445312" style="fill: inherit;"/><path d="M 1833.285156 886.226562 L 619.214844 886.226562 C 607.996094 886.226562 598.882812 877.128906 598.882812 865.902344 C 598.882812 854.667969 607.996094 845.582031 619.214844 845.582031 L 1833.285156 845.582031 C 1844.535156 845.582031 1853.621094 854.667969 1853.621094 865.902344 C 1853.621094 877.128906 1844.535156 886.226562 1833.285156 886.226562" style="fill: inherit;"/><path d="M 1685.304688 1140.191406 L 1074.820312 1140.191406 C 1063.59375 1140.191406 1054.511719 1131.109375 1054.511719 1119.871094 C 1054.511719 1108.640625 1063.59375 1099.550781 1074.820312 1099.550781 L 1685.304688 1099.550781 C 1696.492188 1099.550781 1705.617188 1108.640625 1705.617188 1119.871094 C 1705.617188 1131.109375 1696.492188 1140.191406 1685.304688 1140.191406" style="fill: inherit;"/><path d="M 1685.304688 1437.523438 L 1074.820312 1437.523438 C 1063.59375 1437.523438 1054.511719 1428.433594 1054.511719 1417.203125 C 1054.511719 1405.972656 1063.59375 1396.878906 1074.820312 1396.878906 L 1685.304688 1396.878906 C 1696.492188 1396.878906 1705.617188 1405.972656 1705.617188 1417.203125 C 1705.617188 1428.433594 1696.492188 1437.523438 1685.304688 1437.523438" style="fill: inherit;"/><path d="M 1685.304688 1734.871094 L 1074.820312 1734.871094 C 1063.59375 1734.871094 1054.511719 1725.78125 1054.511719 1714.550781 C 1054.511719 1703.320312 1063.59375 1694.234375 1074.820312 1694.234375 L 1685.304688 1694.234375 C 1696.492188 1694.234375 1705.617188 1703.320312 1705.617188 1714.550781 C 1705.617188 1725.78125 1696.492188 1734.871094 1685.304688 1734.871094" style="fill: inherit;"/><path d="M 850.605469 1195.949219 C 844.984375 1195.949219 839.40625 1193.628906 835.382812 1189.078125 L 751.992188 1094.78125 C 744.585938 1086.390625 745.371094 1073.53125 753.78125 1066.101562 C 762.191406 1058.679688 775.070312 1059.460938 782.4375 1067.871094 L 865.824219 1162.171875 C 873.257812 1170.570312 872.445312 1183.429688 864.039062 1190.851562 C 860.183594 1194.269531 855.394531 1195.949219 850.605469 1195.949219" style="fill: inherit;"/><path d="M 850.539062 1195.949219 C 846.6875 1195.949219 842.792969 1194.859375 839.320312 1192.550781 C 829.996094 1186.351562 827.441406 1173.71875 833.636719 1164.378906 L 964.734375 967.210938 C 970.929688 957.859375 983.511719 955.300781 992.902344 961.53125 C 1002.21875 967.75 1004.78125 980.359375 998.585938 989.710938 L 867.488281 1186.878906 C 863.59375 1192.769531 857.140625 1195.949219 850.539062 1195.949219" style="fill: inherit;"/><path d="M 850.605469 1519.328125 C 844.984375 1519.328125 839.40625 1517 835.382812 1512.460938 L 751.992188 1418.179688 C 744.585938 1409.78125 745.371094 1396.949219 753.761719 1389.511719 C 762.191406 1382.070312 775.027344 1382.851562 782.4375 1391.269531 L 865.824219 1485.550781 C 873.257812 1493.941406 872.445312 1506.78125 864.058594 1514.21875 C 860.183594 1517.640625 855.394531 1519.328125 850.605469 1519.328125" style="fill: inherit;"/><path d="M 850.539062 1519.328125 C 846.6875 1519.328125 842.792969 1518.230469 839.320312 1515.929688 C 829.996094 1509.71875 827.441406 1497.101562 833.65625 1487.75 L 964.734375 1290.621094 C 970.929688 1281.25 983.511719 1278.71875 992.902344 1284.941406 C 1002.21875 1291.160156 1004.78125 1303.78125 998.5625 1313.121094 L 867.488281 1510.261719 C 863.59375 1516.140625 857.140625 1519.328125 850.539062 1519.328125" style="fill: inherit;"/><path d="M 850.605469 1817.441406 C 844.984375 1817.441406 839.40625 1815.121094 835.382812 1810.570312 L 751.992188 1716.269531 C 744.585938 1707.871094 745.371094 1695.019531 753.78125 1687.589844 C 762.191406 1680.179688 775.070312 1680.949219 782.4375 1689.359375 L 865.824219 1783.660156 C 873.257812 1792.058594 872.445312 1804.921875 864.039062 1812.339844 C 860.183594 1815.75 855.394531 1817.441406 850.605469 1817.441406" style="fill: inherit;"/><path d="M 850.539062 1817.441406 C 846.6875 1817.441406 842.792969 1816.339844 839.320312 1814.039062 C 829.996094 1807.839844 827.441406 1795.210938 833.636719 1785.871094 L 964.734375 1588.699219 C 970.929688 1579.351562 983.511719 1576.769531 992.902344 1583.019531 C 1002.21875 1589.230469 1004.78125 1601.851562 998.585938 1611.199219 L 867.488281 1808.371094 C 863.59375 1814.269531 857.140625 1817.441406 850.539062 1817.441406" style="fill: inherit;"/></g></svg>